<?xml version="1.0" encoding="utf-8"?>
<!-- Generator: Adobe Illustrator 16.0.0, SVG Export Plug-In . SVG Version: 6.00 Build 0)  -->
<!DOCTYPE svg PUBLIC "-//W3C//DTD SVG 1.1//EN" "http://www.w3.org/Graphics/SVG/1.1/DTD/svg11.dtd">
<svg version="1.1" id="Layer_1" xmlns="http://www.w3.org/2000/svg" xmlns:xlink="http://www.w3.org/1999/xlink" x="0px" y="0px"
	 width="358.482px" height="143.992px" viewBox="0 0 358.482 143.992" enable-background="new 0 0 358.482 143.992"
	 xml:space="preserve">
<g>
	<rect x="27.9" y="34.405" fill="#1DA0DB" width="80" height="80"/>
	<path fill="#FFFFFF" d="M78.489,53.047c-1.604-0.367-3.944-0.578-7.021-0.614l-20.045,0.004v4.073l6.995,0.544v11.783
		l27.771-10.311C84.77,55.675,82.216,53.923,78.489,53.047z"/>
	<path fill="#FFFFFF" d="M87.356,62.622L58.417,73.369v20.627l-6.995,0.546v3.799h22.297v-4.072l-9.328-0.545V79.2l5.037-0.034
		c0,0,0.115-0.003,0.145-0.003c3.966-0.213,7.036-0.709,9.218-1.461c5.704-2.03,8.947-6.556,8.716-13.271
		C87.485,63.796,87.43,63.199,87.356,62.622z"/>
	<g>
		<path fill="#595A5C" d="M125.977,99.295v-4.106l5.53-0.492V66.884l-5.53-0.493v-4.106h13.961c3.176,0,7.446,0.164,9.745,0.766
			c4.928,1.314,7.336,4.271,7.336,9.8c0,5.365-2.683,9.033-7.446,10.566c-2.464,0.767-5.475,0.985-8.486,0.985h-3.395v10.348
			l6.406,0.438v4.106H125.977z M141.142,79.257c1.861,0,4.161-0.164,5.584-0.656c2.19-0.822,3.668-2.629,3.668-5.64
			c0-2.19-1.04-3.833-2.956-4.654c-1.314-0.602-3.449-0.876-5.749-0.876h-3.997v11.826H141.142z"/>
		<path fill="#595A5C" d="M172.513,100.116c-8.103,0-13.085-5.092-13.085-14.016c0-9.745,5.037-14.946,14.125-14.946
			c8.65,0,12.756,4.817,12.756,13.796C186.31,94.696,181.437,100.116,172.513,100.116z M173.061,75.862
			c-5.092,0-7.446,3.777-7.446,9.362c0,7.774,2.847,10.183,7.227,10.183c4.161,0,7.172-2.572,7.172-9.58
			C180.014,79.859,178.864,75.862,173.061,75.862z"/>
		<path fill="#595A5C" d="M190.033,99.295v-4.052l4.653-0.492V64.475h-5.092v-3.941c3.668-1.041,7.61-1.752,10.95-1.752v35.97
			l4.817,0.492v4.052H190.033z"/>
		<path fill="#595A5C" d="M210.509,99.295v-4.052l4.817-0.492V76.958h-5.146v-3.997c3.449-0.931,7.61-1.643,10.95-1.643v23.433
			l4.817,0.492v4.052H210.509z M217.297,67.541c-1.807,0-3.504-0.931-3.504-3.614c0-2.628,1.697-3.668,3.559-3.668
			c2.026,0,3.504,0.876,3.504,3.668C220.855,66.391,219.378,67.541,217.297,67.541z"/>
		<path fill="#595A5C" d="M259.728,98.692c-2.956,0.603-6.57,1.096-10.02,1.096l-0.383-3.613c-2.19,2.189-4.982,3.723-8.541,3.723
			c-6.132,0-10.621-4.709-10.621-13.688c0-10.895,6.405-14.782,13.358-14.782c1.752,0,3.942,0.219,5.584,0.931v-7.884h-5.311v-3.941
			c3.724-1.041,7.446-1.752,11.114-1.807v36.08h4.818V98.692z M249.105,77.341c-1.587-0.492-3.339-0.767-4.872-0.767
			c-4.763,0-7.884,2.628-7.884,9.198c0,7.336,2.957,9.088,6.296,9.088c2.464,0,4.325-0.985,6.46-2.464V77.341z"/>
		<path fill="#595A5C" d="M275.987,100.116c-7.993,0-12.538-5.748-12.538-14.07c0-10.184,6.297-14.892,13.414-14.892
			c9.197,0,11.223,6.187,11.223,12.866c0,0.492-0.055,1.423-0.164,2.299h-18.395c0,0.383,0,1.369,0.055,1.916
			c0.492,4.161,3.229,6.898,7.664,6.898c3.723,0,6.57-1.149,9.253-2.901l2.025,3.942
			C284.692,98.692,280.969,100.116,275.987,100.116z M282.338,80.899c0-2.847-1.424-5.256-5.584-5.256
			c-3.449,0-6.406,2.135-7.008,6.406h12.537C282.338,81.666,282.338,81.282,282.338,80.899z"/>
		<path fill="#595A5C" d="M320.936,98.638c-2.354,0.548-6.679,1.096-10.019,1.096l-0.383-3.559c-2.3,2.518-5.311,3.668-8.377,3.668
			c-5.968,0-8.65-4.161-8.65-8.432c0-3.559,1.972-5.913,5.201-6.953c3.066-0.931,7.173-1.424,11.552-1.533v-1.368
			c0-1.862-0.109-3.395-0.602-4.052c-0.657-0.876-1.643-1.204-3.832-1.204c-2.081,0-5.694,0.438-9.308,1.478l-0.876-4.325
			c4.105-1.423,9.088-2.299,12.154-2.299c3.34,0,5.857,0.821,7.008,2.737c0.875,1.479,1.259,3.668,1.259,7.665v13.249h4.872V98.638z
			 M310.314,86.813c-2.463,0.109-6.076,0.383-8.157,1.095c-1.752,0.602-2.573,2.025-2.573,3.449c0,2.573,1.752,3.777,4.271,3.777
			c2.354,0,4.708-1.095,6.46-2.683V86.813z"/>
	</g>
</g>
</svg>
